<svg width="48" height="48" viewBox="0 0 48 48" fill="none" xmlns="http://www.w3.org/2000/svg">
<g filter="url(#filter0_b_573_4627)">
<mask id="path-1-inside-1_573_4627" fill="white">
<path d="M0 0H48V48H0V0Z"/>
</mask>
<path d="M0 0H48V48H0V0Z" fill="url(#paint0_radial_573_4627)" fill-opacity="0.16"/>
<path d="M24.7 21.7C24.3 21.3 23.7 21.3 23.3 21.7L20.3 24.7C19.9 25.1 19.9 25.7 20.3 26.1C20.7 26.5 21.3 26.5 21.7 26.1L24 23.8L26.3 26.1C26.5 26.3 26.7 26.4 27 26.4C27.3 26.4 27.5 26.3 27.7 26.1C28.1 25.7 28.1 25.1 27.7 24.7L24.7 21.7ZM21.7 20.7L24 18.4L26.3 20.7C26.5 20.9 26.7 21 27 21C27.3 21 27.5 20.9 27.7 20.7C28.1 20.3 28.1 19.7 27.7 19.3L24.7 16.3C24.3 15.9 23.7 15.9 23.3 16.3L20.3 19.3C19.9 19.7 19.9 20.3 20.3 20.7C20.7 21 21.3 21 21.7 20.7Z" fill="#ECFFFF"/>
<path d="M48 43H0V53H48V43Z" fill="url(#paint1_linear_573_4627)" mask="url(#path-1-inside-1_573_4627)"/>
</g>
<defs>
<filter id="filter0_b_573_4627" x="-13" y="-13" width="74" height="74" filterUnits="userSpaceOnUse" color-interpolation-filters="sRGB">
<feFlood flood-opacity="0" result="BackgroundImageFix"/>
<feGaussianBlur in="BackgroundImageFix" stdDeviation="6.5"/>
<feComposite in2="SourceAlpha" operator="in" result="effect1_backgroundBlur_573_4627"/>
<feBlend mode="normal" in="SourceGraphic" in2="effect1_backgroundBlur_573_4627" result="shape"/>
</filter>
<radialGradient id="paint0_radial_573_4627" cx="0" cy="0" r="1" gradientUnits="userSpaceOnUse" gradientTransform="translate(44.2274 4.93548) rotate(139.311) scale(66.0549 73.9835)">
<stop stop-color="#E0E3F0"/>
<stop offset="0.464363" stop-color="white" stop-opacity="0.81"/>
<stop offset="1" stop-color="#E0E3F0" stop-opacity="0"/>
</radialGradient>
<linearGradient id="paint1_linear_573_4627" x1="12.0673" y1="6.96907" x2="28.8531" y2="46.1614" gradientUnits="userSpaceOnUse">
<stop stop-color="#B2883E"/>
<stop offset="0.132936" stop-color="#E0B54D"/>
<stop offset="0.186698" stop-color="#ECD799"/>
<stop offset="0.325922" stop-color="#AB8C40"/>
<stop offset="0.558973" stop-color="#E0B54D"/>
<stop offset="0.682701" stop-color="#C29743"/>
<stop offset="1" stop-color="#FEF2BD"/>
</linearGradient>
</defs>
</svg>
