<svg width="16" height="16" viewBox="0 0 16 16" fill="none" xmlns="http://www.w3.org/2000/svg">
<path d="M12.64 11.2V8.32C12.64 5.93413 10.7059 4 8.32 4C5.93413 4 4 5.93413 4 8.32V11.2M5.2 12.64C4.53726 12.64 4 12.1027 4 11.44V10.48C4 9.81726 4.53726 9.28 5.2 9.28C5.86274 9.28 6.4 9.81726 6.4 10.48V11.44C6.4 12.1027 5.86274 12.64 5.2 12.64ZM11.44 12.64C10.7773 12.64 10.24 12.1027 10.24 11.44V10.48C10.24 9.81726 10.7773 9.28 11.44 9.28C12.1027 9.28 12.64 9.81726 12.64 10.48V11.44C12.64 12.1027 12.1027 12.64 11.44 12.64Z" stroke="#ECFFFF" stroke-width="0.96" stroke-linecap="round" stroke-linejoin="round"/>
</svg>
