<svg width="41" height="40" viewBox="0 0 41 40" fill="none" xmlns="http://www.w3.org/2000/svg">
<path d="M40.5 31.6084V40H20.4303C20.2436 40 20.0582 39.9972 19.8728 39.9916C9.123 39.6965 0.5 30.8587 0.5 20C0.5 9.14126 9.42265 0 20.4303 0C31.438 0 40.3606 8.95385 40.3606 20C40.3606 22.9972 39.7028 25.8392 38.5265 28.3916H28.4108C30.6185 26.2769 31.9983 23.2979 31.9983 20C31.9983 13.5986 26.8094 8.39161 20.4303 8.39161C14.0512 8.39161 8.86237 13.5986 8.86237 20C8.86237 26.4014 13.976 31.5287 20.2909 31.6042V31.6084H40.5Z" fill="url(#paint0_linear_834_516)"/>
<defs>
<linearGradient id="paint0_linear_834_516" x1="10.5561" y1="5.80756" x2="24.5442" y2="38.4678" gradientUnits="userSpaceOnUse">
<stop stop-color="#B2883E"/>
<stop offset="0.132936" stop-color="#E0B54D"/>
<stop offset="0.186698" stop-color="#ECD799"/>
<stop offset="0.325922" stop-color="#AB8C40"/>
<stop offset="0.558973" stop-color="#E0B54D"/>
<stop offset="0.682701" stop-color="#C29743"/>
<stop offset="1" stop-color="#FEF2BD"/>
</linearGradient>
</defs>
</svg>
