<svg width="1408" height="381" viewBox="0 0 1408 381" fill="none" xmlns="http://www.w3.org/2000/svg">
<path d="M549.195 265.096H523.305V242.403H522.666C510.84 258.384 496.777 268.932 472.805 268.932C438.925 268.932 417.191 248.476 417.191 214.276V99.8513H443.08V213.637C443.08 235.052 456.824 247.517 480.156 247.517C506.365 247.517 523.305 227.7 523.305 201.491V99.8513H549.195V265.096ZM713.97 266.694C697.03 266.694 688.081 259.023 685.524 242.083H685.204C675.296 254.868 658.356 268.292 630.229 268.292C598.906 268.292 574.295 253.59 574.295 222.267C574.295 183.273 604.979 175.282 646.21 168.89C669.543 165.374 685.843 163.137 685.843 145.238C685.843 126.7 672.419 116.152 648.767 116.152C621.919 116.152 608.495 127.658 607.536 152.589H582.605C583.564 120.627 604.659 96.6551 648.448 96.6551C683.606 96.6551 709.495 109.76 709.495 149.073V227.7C709.495 241.124 712.692 248.476 727.075 245.28H728.033V264.137C724.837 265.416 720.682 266.694 713.97 266.694ZM635.982 248.476C670.501 248.476 686.163 223.226 686.163 204.048V175.921C677.533 181.355 662.511 185.51 648.448 188.067C622.558 192.861 601.783 197.336 601.783 221.627C601.783 243.681 619.042 248.476 635.982 248.476ZM773.025 99.8513V121.586H773.665C785.491 105.924 802.111 96.0158 826.083 96.0158C860.602 96.0158 881.697 114.874 881.697 149.073V265.096H855.808V151.311C855.808 129.896 841.744 117.75 818.412 117.75C792.203 117.75 773.025 136.288 773.025 163.456V265.096H747.136V99.8513H773.025ZM902.33 120.946V99.8513H926.302V47.7529H952.191V99.8513H984.153V120.946H952.191V228.34C952.191 239.846 958.264 243.681 968.812 243.681C973.926 243.681 979.679 242.403 982.555 241.444H983.514V263.818C977.441 265.096 970.41 266.055 962.739 266.055C941.644 266.055 926.302 257.425 926.302 234.093V120.946H902.33ZM1141.93 265.096H1116.04V242.403H1115.4C1103.58 258.384 1089.51 268.932 1065.54 268.932C1031.66 268.932 1009.93 248.476 1009.93 214.276V99.8513H1035.82V213.637C1035.82 235.052 1049.56 247.517 1072.89 247.517C1099.1 247.517 1116.04 227.7 1116.04 201.491V99.8513H1141.93V265.096ZM1176.94 265.096V99.8513H1202.83V123.503H1203.47C1213.7 107.522 1231.28 96.0158 1252.05 96.0158C1272.19 96.0158 1288.17 106.244 1295.2 125.421H1295.84C1306.39 106.563 1326.2 96.0158 1346.34 96.0158C1375.75 96.0158 1396.52 114.874 1396.52 149.073V265.096H1370.63V150.352C1370.63 129.896 1356.89 117.75 1340.27 117.75C1318.85 117.75 1299.68 136.288 1299.68 162.178V265.096H1273.79V150.352C1273.79 129.896 1262.28 117.75 1245.34 117.75C1225.2 117.75 1202.83 136.288 1202.83 162.178V265.096H1176.94Z" fill="url(#paint0_linear_954_783)"/>
<path d="M380.92 301.007V380.92H189.796C188.018 380.92 186.253 380.893 184.487 380.84C82.1168 378.03 0 293.868 0 190.46C0 87.0522 84.9704 0 189.796 0C294.622 0 379.593 85.2675 379.593 190.46C379.593 219.002 373.328 246.066 362.126 270.373H265.795C286.818 250.235 299.958 221.866 299.958 190.46C299.958 129.499 250.544 79.9133 189.796 79.9133C129.048 79.9133 79.6348 129.499 79.6348 190.46C79.6348 251.42 128.332 300.247 188.469 300.967V301.007H380.92Z" fill="url(#paint1_linear_954_783)"/>
<defs>
<linearGradient id="paint0_linear_954_783" x1="655.24" y1="89.8109" x2="668.989" y2="266.537" gradientUnits="userSpaceOnUse">
<stop stop-color="#B2883E"/>
<stop offset="0.132936" stop-color="#E0B54D"/>
<stop offset="0.186698" stop-color="#ECD799"/>
<stop offset="0.325922" stop-color="#AB8C40"/>
<stop offset="0.558973" stop-color="#E0B54D"/>
<stop offset="0.682701" stop-color="#C29743"/>
<stop offset="1" stop-color="#FEF2BD"/>
</linearGradient>
<linearGradient id="paint1_linear_954_783" x1="95.764" y1="55.3054" x2="228.973" y2="366.329" gradientUnits="userSpaceOnUse">
<stop stop-color="#B2883E"/>
<stop offset="0.132936" stop-color="#E0B54D"/>
<stop offset="0.186698" stop-color="#ECD799"/>
<stop offset="0.325922" stop-color="#AB8C40"/>
<stop offset="0.558973" stop-color="#E0B54D"/>
<stop offset="0.682701" stop-color="#C29743"/>
<stop offset="1" stop-color="#FEF2BD"/>
</linearGradient>
</defs>
</svg>
